HIERARCHY
ROOT Hips
{
 OFFSET 0.000000 0.000000 0.000000
 CHANNELS 6 Xposition Yposition Zposition Yrotation Xrotation Zrotation
 JOINT Chest
 {
  OFFSET 0.000000 9.585900 0.002600
  CHANNELS 3 Yrotation Xrotation Zrotation
  JOINT Chest2
  {
   OFFSET 0.000000 9.601200 -0.005300
   CHANNELS 3 Yrotation Xrotation Zrotation
   JOINT Chest3
   {
    OFFSET 0.000000 9.561800 0.000000
    CHANNELS 3 Yrotation Xrotation Zrotation
    JOINT Chest4
    {
     OFFSET 0.000000 9.552100 0.000000
     CHANNELS 3 Yrotation Xrotation Zrotation
     JOINT Neck
     {
      OFFSET 0.000000 14.453000 0.000000
      CHANNELS 3 Yrotation Xrotation Zrotation
      JOINT Head
      {
       OFFSET 0.000000 8.936500 -0.011300
       CHANNELS 3 Yrotation Xrotation Zrotation
       End Site
       {
        OFFSET 0.000000 17.073600 -0.006000
       }
      }
     }
     JOINT RightCollar
     {
      OFFSET -2.921100 9.558500 0.000000
      CHANNELS 3 Yrotation Xrotation Zrotation
      JOINT RightShoulder
      {
       OFFSET -13.519700 0.000000 0.000000
       CHANNELS 3 Yrotation Xrotation Zrotation
       JOINT RightElbow
       {
        OFFSET 0.000000 -29.696600 0.000000
        CHANNELS 3 Yrotation Xrotation Zrotation
        JOINT RightWrist
        {
         OFFSET 0.000000 -24.004700 0.000000
         CHANNELS 3 Yrotation Xrotation Zrotation
         End Site
         {
          OFFSET 0.000000 -17.728500 0.000000
         }
        }
       }
      }
     }
     JOINT LeftCollar
     {
      OFFSET 2.921100 9.558500 0.000000
      CHANNELS 3 Yrotation Xrotation Zrotation
      JOINT LeftShoulder
      {
       OFFSET 13.519700 0.000000 0.000000
       CHANNELS 3 Yrotation Xrotation Zrotation
       JOINT LeftElbow
       {
        OFFSET 0.000000 -29.696600 0.000000
        CHANNELS 3 Yrotation Xrotation Zrotation
        JOINT LeftWrist
        {
         OFFSET 0.000000 -24.004700 0.000000
         CHANNELS 3 Yrotation Xrotation Zrotation
         End Site
         {
          OFFSET 0.000000 -17.728500 0.000000
         }
        }
       }
      }
     }
    }
   }
  }
 }
 JOINT RightHip
 {
  OFFSET -7.771700 -0.012900 -0.001300
  CHANNELS 3 Yrotation Xrotation Zrotation
  JOINT RightKnee
  {
   OFFSET 0.000000 -40.869800 0.001200
   CHANNELS 3 Yrotation Xrotation Zrotation
   JOINT RightAnkle
   {
    OFFSET 0.000000 -39.717900 0.002100
    CHANNELS 3 Yrotation Xrotation Zrotation
    JOINT RightToe
    {
     OFFSET 0.000000 -4.965400 11.033500
     CHANNELS 3 Yrotation Xrotation Zrotation
     End Site
     {
      OFFSET 0.000000 -1.423100 5.872300
     }
    }
   }
  }
 }
 JOINT LeftHip
 {
  OFFSET 7.771700 -0.012900 -0.001300
  CHANNELS 3 Yrotation Xrotation Zrotation
  JOINT LeftKnee
  {
   OFFSET 0.000000 -40.869800 0.001200
   CHANNELS 3 Yrotation Xrotation Zrotation
   JOINT LeftAnkle
   {
    OFFSET 0.000000 -39.717900 0.002100
    CHANNELS 3 Yrotation Xrotation Zrotation
    JOINT LeftToe
    {
     OFFSET 0.000000 -4.965400 11.033500
     CHANNELS 3 Yrotation Xrotation Zrotation
     End Site
     {
      OFFSET 0.000000 -1.423100 5.872300
     }
    }
   }
  }
 }
}
MOTION
Frames: 8
Frame Time: 0.008333
0.000000 85.388000 0.000000 0.000000 -5.767877 0.000000 0.000000 11.653817 0.000000 0.000000 -5.885947 0.000000 0.000000 -0.000000 0.000000 0.000000 -0.000000 0.000000 0.000000 12.528835 0.000000 0.000000 0.711642 0.000000 0.000000 -0.000000 0.000000 0.000000 0.000000 -90.000000 0.000000 -2.309062 0.000000 0.000000 2.309062 0.000000 0.000000 -0.000000 0.000000 0.000000 -0.000000 90.000000 0.000000 -2.309062 0.000000 0.000000 2.309062 0.000000 0.000000 8.520406 0.000000 0.000000 1.905762 0.000000 -0.000000 -4.658285 0.000000 0.000000 -0.000000 0.000000 0.000000 8.520406 0.000000 0.000000 1.905762 0.000000 -0.000000 -4.658285 0.000000 0.000000 -0.000000 0.000000
-33.320873 53.017119 -0.771304 -176.188786 -15.170009 -1.335623 -0.132627 15.963169 0.821271 -0.036932 1.564061 0.083584 -0.037273 2.615496 0.146674 -0.093694 14.161182 0.794794 -1.123430 14.905195 -2.913769 -0.516960 -10.056978 -2.800401 2.641846 0.847334 1.552516 6.927761 -10.803555 -9.274863 -77.047463 -70.557984 115.693953 -7.391440 -29.080488 -22.080715 -5.731058 -0.069617 -0.029006 -0.488732 -9.900924 11.830350 71.797491 -58.698413 -116.149955 2.444763 -12.784319 14.980824 3.566358 -63.061830 8.213057 178.802306 85.882359 176.473373 -12.900580 -23.235251 12.962639 0.010210 -0.029143 -0.028487 6.195343 -61.567272 -6.620158 119.812591 78.252743 117.637605 -6.760352 -19.223672 -1.015952 0.007189 0.084696 0.004403
-33.323226 53.019276 -0.772659 -176.187635 -15.169759 -1.328857 -0.118216 15.959704 0.821441 -0.040549 1.561797 0.085874 -0.035431 2.613626 0.147159 -0.094216 14.162147 0.793024 -1.117771 14.944183 -2.933696 -0.506597 -9.985470 -2.831956 2.637455 0.798657 1.580932 6.934566 -10.797794 -9.259415 -77.143107 -70.551001 115.769870 -7.392053 -29.040258 -22.073016 -5.740500 -0.127805 -0.030291 -0.504691 -9.878487 11.845081 71.762394 -58.708881 -116.137884 2.450980 -12.760170 14.996576 3.576912 -63.061163 8.210809 179.288309 85.886388 176.981856 -13.146392 -23.206161 13.020088 0.003336 -0.017487 -0.015835 6.206135 -61.560810 -6.634925 119.787419 78.254628 117.610688 -6.759926 -19.226740 -1.015836 0.009302 0.084527 0.005116
-33.324755 53.021539 -0.773832 -176.187499 -15.166026 -1.326885 -0.101528 15.950945 0.825775 -0.018692 1.556159 0.087983 -0.040005 2.613674 0.146856 -0.109878 14.166091 0.793707 -1.127855 14.961553 -2.937507 -0.478702 -9.887661 -2.873312 2.631488 0.745072 1.608369 6.931124 -10.785930 -9.237875 -77.088451 -70.571976 115.702647 -7.389331 -29.040133 -22.057625 -5.743171 -0.192454 -0.030069 -0.524191 -9.821104 11.850721 71.782820 -58.739557 -116.182508 2.468568 -12.740737 15.015298 3.580880 -63.062149 8.199802 179.346529 85.888215 177.034268 -13.243292 -23.186951 13.060149 0.004224 -0.019817 -0.012417 6.206396 -61.560001 -6.636822 119.770402 78.256406 117.591719 -6.762957 -19.228417 -1.015213 0.007346 0.080674 0.004715
-33.325116 53.023957 -0.775408 -176.188853 -15.162450 -1.331368 -0.084167 15.940620 0.835410 -0.020738 1.556243 0.088136 -0.041032 2.615777 0.147249 -0.066722 14.146162 0.796784 -1.146822 15.031618 -2.950637 -0.481637 -9.819040 -2.884755 2.592715 0.705852 1.639189 6.917279 -10.772532 -9.206848 -77.207868 -70.608306 115.793587 -7.430607 -28.965849 -22.051657 -5.770189 -0.297991 -0.041985 -0.561308 -9.753636 11.884543 71.742597 -58.744262 -116.155779 2.466296 -12.688601 15.009841 3.574779 -63.059830 8.178741 179.063220 85.887801 176.720061 -13.153887 -23.185484 13.072556 0.013380 -0.032082 -0.016815 6.193457 -61.561425 -6.622599 119.766535 78.255885 117.587449 -6.766934 -19.234214 -1.017754 0.010487 0.080939 0.005592
-33.326729 53.026405 -0.777333 -176.199231 -15.159930 -1.325637 -0.059921 15.930878 0.835767 -0.031734 1.560589 0.088900 -0.027111 2.605503 0.147158 -0.067385 14.148869 0.797660 -1.108114 15.135344 -2.986944 -0.518817 -9.792869 -2.864958 2.583810 0.683860 1.652088 6.908494 -10.793181 -9.168101 -77.306407 -70.651381 115.863494 -7.438370 -28.921033 -22.041632 -5.768350 -0.383180 -0.052943 -0.569966 -9.785553 11.902222 71.549536 -58.717710 -115.979418 2.399620 -12.587967 14.942722 3.601114 -63.063575 8.182026 179.422936 85.895329 177.111872 -13.429850 -23.146439 13.128670 0.003803 -0.023008 -0.005105 6.202109 -61.561278 -6.623109 119.822625 78.269077 117.642568 -6.752741 -19.239966 -1.022775 0.013278 0.077229 0.008289
-33.329063 53.028638 -0.779090 -176.197337 -15.154778 -1.318298 -0.050864 15.919993 0.830321 -0.029334 1.558799 0.088809 -0.024266 2.602282 0.146728 -0.051872 14.140795 0.798017 -1.120006 15.189147 -2.989923 -0.520421 -9.705151 -2.874670 2.558926 0.669740 1.669770 6.900855 -10.788069 -9.149858 -77.407997 -70.671633 115.948962 -7.413148 -28.902283 -22.047201 -5.785071 -0.438256 -0.055387 -0.571865 -9.776271 11.910749 71.462611 -58.714782 -115.914721 2.359668 -12.476561 14.883744 3.615676 -63.070690 8.204394 -179.955471 85.903758 177.775684 -13.789650 -23.098780 13.191634 -0.009823 -0.011939 0.008119 6.208520 -61.563469 -6.632871 119.824495 78.272405 117.640198 -6.755918 -19.238712 -1.020590 0.016073 0.072457 0.008515
-33.330328 53.030637 -0.780827 -176.198244 -15.147760 -1.316517 -0.032572 15.902579 0.829663 -0.026381 1.557764 0.091128 0.000070 2.578605 0.139845 -0.058226 14.150211 0.806845 -1.146397 15.225907 -2.982998 -0.515570 -9.586381 -2.888536 2.551873 0.571459 1.698060 6.865908 -10.736732 -9.106980 -77.335791 -70.699924 115.862006 -7.394186 -28.889348 -22.054849 -5.802287 -0.485970 -0.057123 -0.570782 -9.767946 11.916142 71.406328 -58.728267 -115.895679 2.352264 -12.345092 14.851748 3.622323 -63.076249 8.205994 -179.770185 85.910312 177.974182 -13.851021 -23.083028 13.199382 -0.013310 -0.017054 0.006688 6.206663 -61.568034 -6.631690 119.826646 78.274522 117.639875 -6.757200 -19.243870 -1.018424 0.018648 0.074314 0.006658
